<svg width="137" height="54" viewBox="0 0 137 54" fill="none" xmlns="http://www.w3.org/2000/svg">
<path d="M73.2753 14.3008L70.7753 26.0008C70.4753 27.4008 69.9753 28.6008 69.2753 29.4008C68.1753 30.8008 66.4753 31.5008 64.2753 31.5008C62.0753 31.5008 60.7753 30.9008 60.2753 29.8008C59.7753 28.7008 59.7753 27.1008 60.1753 25.1008L60.2753 24.7008H63.5753L63.4753 25.1008C63.2753 26.4008 63.1753 27.3008 63.2753 27.8008C63.3753 28.3008 63.8753 28.6008 64.7753 28.6008C65.5753 28.6008 66.1753 28.3008 66.5753 27.7008C66.7753 27.4008 66.9753 26.8008 67.1753 26.0008L69.6753 14.3008H73.2753Z" fill="#FFAD40"/>
<path d="M85.5742 14.3008L87.9742 31.1008H84.1742L83.7742 27.6008H77.5742L75.6742 31.1008H72.0742L81.6742 14.3008H85.5742ZM82.6742 18.1008L79.1742 24.7008H83.4742L82.6742 18.1008Z" fill="#FFAD40"/>
<path d="M106.177 16.7004C106.677 17.7004 106.877 18.8004 106.677 19.8004H103.177C103.077 19.0004 102.977 18.4004 102.677 18.0004C102.177 17.3004 101.377 16.9004 100.077 16.9004C98.7766 16.9004 97.6766 17.4004 96.7766 18.4004C95.7766 19.4004 95.1766 20.9004 94.7766 22.8004C94.3766 24.7004 94.4766 26.1004 95.0766 27.0004C95.6766 27.9004 96.5766 28.4004 97.7766 28.4004C98.9766 28.4004 100.077 28.0004 100.877 27.2004C101.277 26.8004 101.777 26.1004 102.177 25.3004H105.677C104.977 27.1004 103.877 28.6004 102.377 29.8004C100.877 30.9004 99.1766 31.5004 97.1766 31.5004C94.7766 31.5004 92.9766 30.7004 91.9766 29.2004C90.9766 27.6004 90.6766 25.5004 91.2766 22.8004C91.8766 19.9004 93.1766 17.6004 95.0766 16.0004C96.7766 14.6004 98.6766 13.9004 100.777 13.9004C103.377 13.9004 105.277 14.9004 106.177 16.7004Z" fill="#FFAD40"/>
<path d="M111.575 25.4002L110.375 31.0002H106.875L110.475 14.2002H113.975L112.475 21.1002L120.475 14.2002H124.975L116.575 21.1002L121.675 31.0002H117.175L113.575 23.7002L111.575 25.4002Z" fill="#FFAD40"/>
<path d="M129.076 18.3004C128.776 18.7004 128.476 19.4004 128.276 20.3004H125.076C125.376 18.9004 125.876 17.8004 126.576 16.9004C127.776 15.3004 129.476 14.4004 131.676 14.4004C133.376 14.4004 134.676 14.9004 135.576 15.9004C136.376 16.9004 136.676 18.1004 136.276 19.7004C135.976 20.9004 135.376 22.0004 134.476 23.0004C133.876 23.6004 132.876 24.3004 131.676 25.1004L130.176 26.0004C129.276 26.6004 128.576 27.0004 128.276 27.3004C127.876 27.6004 127.576 27.9004 127.376 28.2004H134.576L133.976 31.1004H122.676C122.976 29.9004 123.476 28.8004 124.076 27.9004C124.776 26.8004 126.076 25.6004 128.076 24.4004C129.776 23.3004 130.976 22.6004 131.476 22.1004C132.276 21.4004 132.776 20.6004 132.976 19.7004C133.176 19.0004 133.076 18.4004 132.776 18.0004C132.476 17.5004 131.976 17.3004 131.276 17.3004C130.376 17.2004 129.676 17.6004 129.076 18.3004Z" fill="#FFAD40"/>
<path d="M28.4753 22.8998C28.6753 21.6998 28.7753 20.4998 28.8753 19.1998L23.9753 21.0998C23.7753 22.3998 23.6753 23.5998 23.4753 24.7998L8.57534 30.3998C4.87534 31.4998 1.97534 34.1998 0.675337 37.7998C-0.624663 41.4998 -0.0246625 45.4998 2.27534 48.6998C4.57534 51.8998 8.07534 53.6998 11.8753 53.6998C12.3753 53.6998 12.7753 53.6998 13.2753 53.5998C17.6753 53.0998 21.2753 50.3998 22.8753 46.2998C24.8753 41.4998 26.4753 35.3998 27.6753 28.1998L45.6753 21.3998L47.0753 15.7998L28.4753 22.8998ZM18.4753 44.4998C17.4753 46.9998 15.2753 48.5998 12.6753 48.8998C10.0753 49.1998 7.57534 48.0998 6.07534 45.9998C4.67534 44.0998 4.37534 41.6998 5.17534 39.4998C5.97534 37.2998 7.67534 35.5998 9.97534 34.9998L22.5753 30.2998C21.4753 35.7998 20.0753 40.5998 18.4753 44.4998Z" fill="white"/>
<path d="M29.875 4.5L30.175 0L12.375 10.9L17.875 13L24.875 8.7C24.575 12 24.275 15.1 23.975 18L28.875 16.1C29.275 12.6 29.675 8.7 29.875 4.5Z" fill="#FFAD40"/>
<path d="M30.2758 52.3996L25.6758 52.5996L30.9758 30.9996L36.1758 29.0996L30.2758 52.3996Z" fill="#FFAD40"/>
<path d="M38.4742 52.3998H33.5742L40.1742 27.5998L44.8742 25.7998L38.4742 52.3998Z" fill="#FFAD40"/>
<path d="M51.7766 14.3L42.4766 52.4H47.3766L57.1766 12L51.7766 14.3Z" fill="#FFAD40"/>
<path d="M66.6742 53.5996H62.9742L62.7742 38.3996C62.6742 38.6996 62.5742 39.1996 62.4742 39.8996C62.3742 40.4996 62.2742 40.9996 62.1742 41.3996L59.5742 53.6996H56.0742L59.9742 35.5996H65.4742L65.7742 49.8996L72.0742 35.5996H77.4742L73.5742 53.6996H70.0742L72.6742 41.3996C72.7742 40.9996 72.8742 40.5996 72.9742 39.8996C73.0742 39.2996 73.1742 38.7996 73.2742 38.3996L66.6742 53.5996Z" fill="white"/>
<path d="M91.6734 50.4L90.9734 53.7H77.2734L81.0734 35.5H94.3734L93.6734 38.7H84.0734L83.2734 42.6H92.0734L91.4734 45.7H82.6734L81.6734 50.4H91.6734Z" fill="white"/>
<path d="M110.875 38.2C111.275 39.1 111.575 40.1 111.575 41.1C111.575 42.2 111.475 43.2 111.275 44.1C110.775 46.5 109.875 48.6 108.475 50.2C106.675 52.5 104.375 53.6 101.675 53.6H93.875L97.775 35.5H105.575C106.675 35.5 107.575 35.6 108.275 35.9C109.475 36.3 110.375 37.1 110.875 38.2ZM107.375 44.4C107.775 42.6 107.775 41.1 107.375 40.1C106.975 39.1 105.975 38.6 104.275 38.6H100.775L98.275 50.4H101.775C103.575 50.4 104.975 49.5 106.075 47.8C106.675 46.9 107.075 45.7 107.375 44.4Z" fill="white"/>
<path d="M111.875 53.6L115.775 35.5H119.575L115.675 53.6H111.875Z" fill="white"/>
<path d="M132.475 35.5L135.075 53.6H130.975L130.575 49.9H123.875L121.875 53.6H117.875L128.175 35.5H132.475ZM129.375 39.7L125.475 46.8H130.075L129.375 39.7Z" fill="white"/>
</svg>
