<svg width="67" height="76" viewBox="0 0 67 76" fill="none" xmlns="http://www.w3.org/2000/svg">
<path d="M16.1209 9.76519L22.7812 23.0859H46.4062L53.0666 9.76519C53.5149 8.86874 52.6555 7.87786 51.7046 8.19481L40.7812 11.8359L35.0987 1.89151C34.648 1.10283 33.4968 1.14587 33.1062 1.96599L28.4062 11.8359L17.4829 8.19481C16.532 7.87786 15.6727 8.86874 16.1209 9.76519Z" stroke="#FFAB3E" stroke-width="2.25"/>
<path d="M23.9062 29.1484L45.2813 29.1484" stroke="#515151" stroke-width="2.25" stroke-linecap="round"/>
<path d="M46.4062 34.6484H24.4688C24.4688 46.3484 20.3438 56.0234 18.2812 59.3984H53.1562C47.3062 50.8484 46.2188 39.3359 46.4062 34.6484Z" stroke="#515151" stroke-width="2.25" stroke-linejoin="round"/>
<path d="M53.1562 63.3359H17.1562V71.7734C17.1562 73.0161 18.1636 74.0234 19.4062 74.0234H50.9062C52.1489 74.0234 53.1562 73.0161 53.1562 71.7734V63.3359Z" stroke="#515151" stroke-width="2.25" stroke-linejoin="round"/>
<path d="M6.06142 32.3696L9.41177 36.16L14.47 36.0839L10.6797 39.4342L10.7558 44.4925L7.40541 40.7021L2.34717 40.7782L6.13751 37.4279L6.06142 32.3696Z" fill="#FFAB3E"/>
<path d="M60.3171 48.3073L62.1506 50.3816L64.9188 50.3399L62.8445 52.1734L62.8861 54.9416L61.0526 52.8673L58.2845 52.9089L60.3588 51.0754L60.3171 48.3073Z" fill="#515151"/>
</svg>
