<svg width="79" height="78" viewBox="0 0 79 78" fill="none" xmlns="http://www.w3.org/2000/svg">
<circle cx="37.5" cy="39.8357" r="36.25" stroke="#515151" stroke-width="2.5"/>
<path d="M60.6989 26.4939C53.3561 13.7757 37.0933 9.41807 24.3751 16.7609C11.6568 24.1038 7.29926 40.3666 14.6421 53.0848" stroke="#515151" stroke-width="2.5"/>
<path d="M60.358 25.9039C67.7009 38.6221 63.3433 54.8849 50.6251 62.2277C37.9068 69.5706 21.6441 65.213 14.3012 52.4948" stroke="#515151" stroke-width="2.5" stroke-miterlimit="4.44541"/>
<path d="M46.9082 33.158L33.1111 46.9551" stroke="#FFAB3E" stroke-width="2.72727" stroke-linecap="round"/>
<path d="M33.1108 46.9548L28.2774 41.754" stroke="#FFAB3E" stroke-width="2.72727" stroke-linecap="round"/>
<path d="M72.2488 0.0328223L73.9272 4.49366L78.406 6.12332L73.9452 7.80164L72.3155 12.2805L70.6372 7.81965L66.1583 6.19L70.6192 4.51167L72.2488 0.0328223Z" fill="#FFAB3E"/>
<path d="M3.31713 68.3071L5.15062 70.3813L7.91876 70.3397L5.84448 72.1732L5.88612 74.9413L4.05263 72.867L1.2845 72.9087L3.35877 71.0752L3.31713 68.3071Z" fill="#515151"/>
</svg>
