<svg width="16" height="16" viewBox="0 0 16 16" fill="none" xmlns="http://www.w3.org/2000/svg">
<path d="M7.12472 0.21946C7.40987 -0.0731539 7.88014 -0.0731532 8.16529 0.219461L9.01622 1.09272C9.20207 1.28342 9.47734 1.35717 9.73363 1.28494L10.9072 0.954155C11.3005 0.843313 11.7077 1.07846 11.8083 1.47444L12.1087 2.65619C12.1743 2.91425 12.3758 3.11575 12.6338 3.18133L13.8156 3.48166C14.2116 3.58229 14.4467 3.98956 14.3359 4.38281L14.0051 5.55639C13.9328 5.81268 14.0066 6.08793 14.1973 6.27376L15.0705 7.12472C15.3632 7.40987 15.3632 7.88014 15.0705 8.16529L14.1973 9.01622C14.0066 9.20207 13.9328 9.47734 14.0051 9.73363L14.3359 10.9072C14.4467 11.3005 14.2116 11.7077 13.8156 11.8083L12.6338 12.1087C12.3758 12.1743 12.1743 12.3758 12.1087 12.6338L11.8083 13.8156C11.7077 14.2116 11.3005 14.4467 10.9072 14.3359L9.73363 14.0051C9.47734 13.9328 9.20207 14.0066 9.01622 14.1973L8.16529 15.0705C7.88014 15.3632 7.40987 15.3632 7.12472 15.0705L6.27376 14.1973C6.08793 14.0066 5.81267 13.9328 5.55639 14.0051L4.38281 14.3359C3.98956 14.4467 3.58229 14.2116 3.48166 13.8156L3.18133 12.6338C3.11575 12.3758 2.91425 12.1743 2.65618 12.1087L1.47444 11.8083C1.07846 11.7077 0.843313 11.3005 0.954155 10.9072L1.28494 9.73363C1.35717 9.47734 1.28342 9.20207 1.09272 9.01622L0.21946 8.16529C-0.0731539 7.88014 -0.0731532 7.40987 0.219461 7.12472L1.09272 6.27376C1.28342 6.08793 1.35717 5.81267 1.28494 5.55639L0.954155 4.38281C0.843313 3.98956 1.07846 3.58229 1.47444 3.48166L2.65619 3.18133C2.91425 3.11575 3.11575 2.91425 3.18133 2.65618L3.48166 1.47444C3.58229 1.07846 3.98956 0.843313 4.38281 0.954155L5.55639 1.28494C5.81268 1.35717 6.08793 1.28342 6.27376 1.09272L7.12472 0.21946Z" fill="white"/>
<path d="M4.55029 7.36211L6.60173 9.41359L10.5815 5.43384" fill="white"/>
<path d="M4.55029 7.36211L6.60173 9.41359L10.5815 5.43384" stroke="black" stroke-width="1.32658"/>
</svg>
