<svg width="74" height="75" viewBox="0 0 74 75" fill="none" xmlns="http://www.w3.org/2000/svg">
<rect x="1.18085" y="35.843" width="71.6383" height="37" rx="3.54255" stroke="#5F5F5F" stroke-width="2.3617"/>
<path d="M61.7976 1.59791C61.7976 1.38052 61.9738 1.20429 62.1912 1.20429H69.2763C69.4937 1.20429 69.6699 1.38052 69.6699 1.59791V31.1192H61.7976V1.59791Z" stroke="#FFAB3E" stroke-width="2.3617"/>
<path d="M47.6276 6.32056C47.6276 6.10317 47.8039 5.92694 48.0212 5.92694H55.1064C55.3237 5.92694 55.5 6.10317 55.5 6.32056V31.1184H47.6276V6.32056Z" stroke="#FFAB3E" stroke-width="2.3617"/>
<path d="M33.4572 11.8323C33.4572 11.6149 33.6334 11.4387 33.8508 11.4387H40.9359C41.1533 11.4387 41.3296 11.6149 41.3296 11.8323V31.1195H33.4572V11.8323Z" stroke="#5F5F5F" stroke-width="2.3617"/>
<path d="M19.2868 17.342C19.2868 17.1247 19.463 16.9484 19.6804 16.9484H26.7655C26.9829 16.9484 27.1591 17.1247 27.1591 17.342V31.1186H19.2868V17.342Z" stroke="#5F5F5F" stroke-width="2.3617"/>
<path d="M5.11689 22.8538C5.11689 22.6364 5.29312 22.4601 5.5105 22.4601H12.5956C12.813 22.4601 12.9892 22.6364 12.9892 22.8538V31.1197H5.11689V22.8538Z" stroke="#5F5F5F" stroke-width="2.3617"/>
<path d="M37.9367 61.2617C37.9416 61.6742 37.9932 62.1715 37.8262 62.5205C37.5427 63.1162 36.59 63.1848 36.2574 62.5878C36.0585 62.2314 36.1162 61.6655 36.1223 61.2268C36.1231 61.182 36.1019 61.157 36.0585 61.152C33.9679 60.9053 32.3045 59.9232 31.606 57.8481C31.5004 57.534 31.4665 57.2681 31.5041 57.0504C31.6539 56.188 32.7464 55.9287 33.2866 56.6067C33.357 56.6956 33.4339 56.8743 33.5174 57.1426C34.1582 59.2016 36.8061 59.5954 38.5775 59.1692C39.4381 58.961 40.3931 58.3229 40.4913 57.3483C40.6473 55.7979 39.2306 55.2894 38.0558 55.0002C37.0696 54.7576 36.0884 54.4942 35.112 54.2101C33.9126 53.8623 32.7477 53.1794 32.2173 51.9941C31.4918 50.3776 32.167 48.4446 33.6315 47.5024C34.2928 47.077 35.0969 46.8232 36.0438 46.7409C36.0863 46.7367 36.1092 46.7126 36.1125 46.6686C36.1444 46.1626 36.0241 45.6354 36.2979 45.2665C36.622 44.8278 37.2161 44.7792 37.6225 45.1207C38.057 45.4871 37.9404 46.1701 37.9355 46.6985C37.9347 46.7442 37.9568 46.7696 38.0018 46.7746C39.7057 46.9814 41.0978 47.7816 41.7779 49.413C41.9375 49.7969 42.0394 50.1433 41.8859 50.5359C41.622 51.2077 40.6939 51.341 40.2262 50.8338C39.9672 50.5521 39.9193 50.1209 39.7069 49.7844C38.8169 48.3723 36.7091 48.3748 35.3244 48.7649C34.3251 49.0478 33.5935 50.1683 34.1005 51.1865C34.4773 51.943 35.7626 52.2459 36.5225 52.4191C39.168 53.0236 42.8925 53.7452 42.4788 57.4268C42.2174 59.7636 40.1795 60.9551 38.0067 61.1832C37.96 61.1874 37.9367 61.2135 37.9367 61.2617Z" fill="#FFAB3E"/>
</svg>
