<svg width="71" height="75" viewBox="0 0 71 75" fill="none" xmlns="http://www.w3.org/2000/svg">
<path d="M3.25098 53.871C3.25098 51.3696 5.27878 49.3418 7.7802 49.3418H8.72176C11.2232 49.3418 13.251 51.3696 13.251 53.871V73.3418H3.25098V53.871Z" stroke="#5F5F5F" stroke-width="2.5"/>
<path d="M21.251 44.871C21.251 42.3696 23.2788 40.3418 25.7802 40.3418H27.7218C30.2232 40.3418 32.251 42.3696 32.251 44.871V73.3418H21.251V44.871Z" stroke="#5F5F5F" stroke-width="2.5"/>
<path d="M40.251 36.871C40.251 34.3696 42.2788 32.3418 44.7802 32.3418H46.7218C49.2232 32.3418 51.251 34.3696 51.251 36.871V73.3418H40.251V36.871Z" stroke="#5F5F5F" stroke-width="2.5"/>
<path d="M65.1335 21.3418H63.3684C61.0944 21.3418 59.251 23.1852 59.251 25.4593V73.5262H69.251V25.4593C69.251 23.1853 67.4075 21.3418 65.1335 21.3418Z" stroke="#5F5F5F" stroke-width="2.27273"/>
<path d="M0.811636 40.4674C0.170934 40.7245 -0.140052 41.4523 0.11703 42.093C0.374113 42.7337 1.10191 43.0447 1.74261 42.7876L0.811636 40.4674ZM33.0498 25.9635L33.725 27.0155L33.0498 25.9635ZM55.1174 8.5827L55.9433 9.52102L55.1174 8.5827ZM63.6213 2.06252C63.6429 1.3725 63.1011 0.795626 62.411 0.774031L51.1665 0.422111C50.4765 0.400514 49.8997 0.942377 49.8781 1.6324C49.8565 2.32241 50.3983 2.89929 51.0883 2.92089L61.0834 3.2337L60.7706 13.2288C60.749 13.9188 61.2909 14.4957 61.9809 14.5173C62.6709 14.5389 63.2478 13.997 63.2694 13.307L63.6213 2.06252ZM1.27713 41.6275C1.74261 42.7876 1.74276 42.7875 1.74298 42.7874C1.74316 42.7874 1.74345 42.7873 1.7438 42.7871C1.7445 42.7868 1.74549 42.7864 1.74678 42.7859C1.74936 42.7849 1.75313 42.7834 1.75808 42.7814C1.76797 42.7774 1.78256 42.7715 1.80174 42.7638C1.84012 42.7483 1.89687 42.7253 1.97119 42.6952C2.11981 42.6348 2.33867 42.5456 2.62111 42.4294C3.18597 42.197 4.00527 41.8568 5.02583 41.4244C7.06663 40.5598 9.91385 39.3259 13.1415 37.8478C19.5834 34.8979 27.5919 30.9524 33.725 27.0155L32.3746 24.9116C26.3947 28.7502 18.5168 32.6367 12.1006 35.5748C8.89926 37.0408 6.07451 38.265 4.05059 39.1225C3.03879 39.5511 2.22755 39.888 1.66996 40.1174C1.39118 40.2321 1.17583 40.3199 1.03055 40.3789C0.957917 40.4084 0.902803 40.4307 0.866039 40.4455C0.847658 40.4529 0.833864 40.4585 0.824762 40.4621C0.820211 40.464 0.816833 40.4653 0.814641 40.4662C0.813545 40.4666 0.812746 40.467 0.812244 40.4672C0.811994 40.4673 0.811842 40.4673 0.811716 40.4674C0.811639 40.4674 0.811636 40.4674 1.27713 41.6275ZM33.725 27.0155C40.9147 22.4003 49.8314 14.9004 55.9433 9.52102L54.2915 7.64438C48.1832 13.0207 39.3902 20.4082 32.3746 24.9116L33.725 27.0155ZM55.9433 9.52102C58.1053 7.61807 59.9249 5.97288 61.2045 4.80297C61.8443 4.21796 62.3493 3.75165 62.6947 3.43121C62.8674 3.27099 63.0002 3.14723 63.0901 3.06331C63.135 3.02136 63.1692 2.98937 63.1923 2.96776C63.2038 2.95695 63.2126 2.94875 63.2185 2.94319C63.2215 2.94041 63.2237 2.9383 63.2253 2.93685C63.226 2.93612 63.2266 2.93557 63.227 2.93518C63.2272 2.93499 63.2274 2.93483 63.2275 2.93473C63.2276 2.93467 63.2276 2.93462 63.2277 2.93459C63.2277 2.93455 63.2277 2.93452 62.3719 2.02342C61.5161 1.11232 61.5161 1.11231 61.5161 1.11231C61.5161 1.11233 61.5161 1.11234 61.5161 1.11237C61.516 1.11243 61.5159 1.11253 61.5158 1.11267C61.5155 1.11296 61.515 1.11341 61.5143 1.11403C61.513 1.11527 61.511 1.11718 61.5082 1.11975C61.5027 1.12489 61.4944 1.13267 61.4834 1.14305C61.4612 1.16381 61.4279 1.19494 61.3839 1.23602C61.2959 1.31817 61.1651 1.44011 60.9944 1.59844C60.6531 1.91511 60.1525 2.37731 59.5175 2.95792C58.2474 4.11924 56.4397 5.75369 54.2915 7.64438L55.9433 9.52102Z" fill="#FFAB3E"/>
</svg>
