<svg width="97" height="75" viewBox="0 0 97 75" fill="none" xmlns="http://www.w3.org/2000/svg">
<path d="M18.0298 62.4892L18.0298 11.677C18.0298 5.96466 22.6606 1.33386 28.373 1.33386H82.4478C87.3317 1.33386 91.2909 5.29301 91.2909 10.1769V10.1769" stroke="#5F5F5F" stroke-width="2.46594" stroke-linecap="round"/>
<path d="M73.6636 22.4486V10.0025C73.6636 5.09455 77.7322 1.1642 82.6373 1.33391V1.33391" stroke="#5F5F5F" stroke-width="2.46594" stroke-linecap="round"/>
<path d="M91.0215 10.2109L74.2531 10.2109" stroke="#5F5F5F" stroke-width="2.46594" stroke-linecap="round"/>
<line x1="67.9975" y1="15.5552" x2="38.695" y2="15.5552" stroke="#5F5F5F" stroke-width="2.46594" stroke-linecap="round"/>
<line x1="56.9155" y1="29.5923" x2="27.613" y2="29.5923" stroke="#5F5F5F" stroke-width="2.46594" stroke-linecap="round"/>
<line x1="31.0576" y1="15.5552" x2="27.6131" y2="15.5552" stroke="#5F5F5F" stroke-width="2.46594" stroke-linecap="round"/>
<line x1="46.5727" y1="44.3677" x2="27.6134" y2="44.3677" stroke="#5F5F5F" stroke-width="2.46594" stroke-linecap="round"/>
<line x1="40.6625" y1="56.817" x2="27.6137" y2="56.817" stroke="#5F5F5F" stroke-width="2.46594" stroke-linecap="round"/>
<path d="M73.6636 48.3066V63.0826C73.6636 68.795 69.0328 73.4258 63.3204 73.4258H18.2536" stroke="#5F5F5F" stroke-width="2.46594" stroke-linecap="round"/>
<path d="M2 64.5602V64.5602C2 69.4565 5.96926 73.4258 10.8656 73.4258H18.9924" stroke="#5F5F5F" stroke-width="2.46594" stroke-linecap="round"/>
<path d="M2.24756 63.8203L60.4438 63.8203" stroke="#5F5F5F" stroke-width="2.46594" stroke-linecap="round"/>
<path d="M60.3652 64.5612V64.5612C60.3652 68.6415 63.673 71.9492 67.7532 71.9492H68.492" stroke="#5F5F5F" stroke-width="2.46594" stroke-linecap="round"/>
<path d="M93.9805 25.0352C93.9805 25.0352 76.2493 25.4046 65.5367 32.0538C59.4297 35.8443 55.9638 43.7166 54.1124 49.785M93.9805 25.0352C93.9805 25.0352 83.6373 36.1172 75.8799 41.6582C68.1225 47.1992 54.1124 49.785 54.1124 49.785M93.9805 25.0352C86.98 26.5128 69.2056 33.5314 54.1124 49.785M52.2383 57.9118C52.2383 57.9118 52.7162 54.3613 54.1124 49.785" stroke="#FFAB3E" stroke-width="1.97275" stroke-linecap="round"/>
</svg>
