<svg width="64" height="83" viewBox="0 0 64 83" fill="none" xmlns="http://www.w3.org/2000/svg">
<path d="M37.464 14.6167C36.6462 15.653 35.801 16.345 34.9286 16.6929C34.8769 14.8157 34.8618 12.9832 34.8833 11.1952C34.8948 10.1747 34.8294 9.45318 34.6871 9.03061C34.0662 7.18727 32.0073 6.50168 30.3278 7.38346C29.2743 7.93826 28.7482 8.953 28.7496 10.4277C28.7525 13.2635 28.7511 16.105 28.7453 18.9523L26.169 21.4381C26.1733 17.7493 26.2768 14.0216 26.1323 10.3565C26.1151 9.94833 26.1122 9.54085 26.1237 9.1341C26.1553 8.00294 26.1661 6.87106 26.156 5.73847C26.128 2.64037 22.2236 1.40716 20.4967 4.03742C20.1963 4.49449 20.0453 4.97167 20.0439 5.46898C20.0324 12.8035 20.0324 20.1654 20.0439 27.5546L17.4611 30.1331C17.4496 24.1338 17.4489 18.1596 17.4589 12.2106C17.4604 11.0795 17.3842 10.2954 17.2304 9.85849C16.3055 7.2153 12.4959 7.21099 11.5322 9.84556C11.3813 10.2566 11.3087 10.9049 11.3145 11.7902C11.3188 12.6655 11.2778 13.556 11.3511 14.427C11.3964 14.9832 11.3145 15.7895 11.3145 16.1043C11.3173 20.1647 11.3166 24.225 11.3123 28.2854C11.3123 28.7439 11.2548 29.081 11.1398 29.2966C10.7194 30.0921 9.40212 30.1223 8.95368 29.3806C8.80564 29.1349 8.73162 28.7375 8.73162 28.1884C8.72587 24.0935 8.72515 19.9987 8.72947 15.9038C8.73162 15.2829 8.72084 14.3731 8.47507 13.8276C7.4014 11.4474 4.00362 11.2512 2.89761 13.709C2.69064 14.169 2.58716 15.0141 2.58716 16.2444C2.59147 27.7989 2.60512 39.3526 2.62812 50.9057C2.63674 55.1723 4.2688 58.2661 7.21599 61.2241C7.53076 61.5431 7.63424 61.8536 7.63424 62.2783C7.64143 68.1914 7.63712 74.0994 7.62131 80.0024C7.62131 80.0197 7.62471 80.0368 7.63132 80.0527C7.63793 80.0687 7.64761 80.0832 7.65983 80.0954C7.67204 80.1076 7.68653 80.1173 7.70249 80.1239C7.71845 80.1305 7.73555 80.1339 7.75282 80.1339L35.0386 80.1382C35.0631 80.1382 35.0867 80.1285 35.1041 80.1111C35.1215 80.0937 35.1313 80.0701 35.1313 80.0455C35.1298 75.6215 35.1298 71.1874 35.1313 66.7433C35.1334 66.241 35.2865 65.6438 35.722 65.4368C40.0662 63.3735 43.2096 60.0922 44.6821 55.4849C45.569 52.7095 46.1856 49.8636 46.5319 46.9473L49.6753 42.8316C49.1385 47.648 48.606 51.3908 47.2757 55.8018C45.7163 60.9603 42.56 64.7857 37.8068 67.278C37.7436 67.3125 37.7119 67.3656 37.7119 67.4375C37.7148 72.1059 37.7148 76.7627 37.7119 81.4081C37.7098 82.4559 36.8948 82.7232 35.9548 82.7232C26.2473 82.7261 16.5398 82.7261 6.83223 82.7232C5.69388 82.7232 5.02985 82.4214 5.03632 81.1968C5.06363 75.0998 5.06866 68.9769 5.05141 62.8281C5.05137 62.7762 5.04084 62.7249 5.02047 62.6771C5.0001 62.6293 4.9703 62.5861 4.93283 62.55C2.35575 60.0275 0.784062 57.0221 0.217765 53.5338C0.0725972 52.634 0.000732133 51.2018 0.00216943 49.237C0.00791864 38.2804 0.00720118 27.3239 1.46664e-05 16.3673C-0.00142264 14.9458 0.102781 13.9074 0.312627 13.252C1.43803 9.72267 5.49769 8.33208 8.65617 10.2207C8.7309 10.2667 8.77546 10.2458 8.78983 10.1582C9.4474 6.0015 13.6644 4.10426 17.3296 6.11361C17.3957 6.14954 17.4287 6.12942 17.4287 6.05324C17.446 3.91022 18.1934 2.28895 19.6709 1.18941C23.2778 -1.49259 28.2796 0.706477 28.7238 5.19301C28.7324 5.28213 28.7748 5.30369 28.851 5.25769C31.9857 3.38848 36.0195 4.77692 37.1535 8.19626C37.3576 8.80855 37.4618 9.6968 37.4662 10.861C37.469 12.1215 37.4683 13.3734 37.464 14.6167Z" fill="#5F5F5F"/>
<path d="M49.6755 42.831L46.5321 46.9467C45.562 48.1368 44.8397 49.2945 44.3395 50.7369C43.0611 54.4192 39.0855 54.1928 38.0851 50.5364C37.4879 48.3524 37.9191 46.0972 38.5314 44.0254C38.5803 43.8572 38.5429 43.8349 38.4193 43.9585C34.655 47.7257 30.867 51.5144 27.0553 55.3247C24.9575 57.4203 21.7344 56.7627 20.4473 54.1519C20.4128 54.0829 20.3618 54.0664 20.2942 54.1023C16.3855 56.1483 12.5349 51.7523 15.0746 48.1519C15.1192 48.0901 15.107 48.0419 15.038 48.0074C12.9359 46.9984 12.1447 44.5816 13.1623 42.499C13.1968 42.4285 13.1781 42.3782 13.1063 42.348C11.084 41.4749 10.0815 39.0839 10.9223 37.135C11.1551 36.5917 11.8227 35.7731 12.9252 34.6793C14.4559 33.1601 15.9679 31.6445 17.4613 30.1324L20.0441 27.5539L26.1692 21.4375L28.7455 18.9516C30.5867 17.5 32.6478 16.7468 34.9288 16.6922C35.8012 16.3444 36.6464 15.6523 37.4642 14.616C40.6895 11.4195 43.9105 8.20782 47.1272 4.98107C47.5181 4.58869 47.8645 4.36088 48.1664 4.29764C49.337 4.05186 50.1196 5.59552 49.1883 6.53336C45.0848 10.657 40.9763 14.7763 36.8627 18.8913C36.6449 19.109 36.2547 19.1888 35.9119 19.1888C34.213 19.191 32.6219 19.4906 31.1731 20.3897C30.6471 20.7159 29.8487 21.413 28.7779 22.4809C23.8436 27.4109 18.9108 32.3423 13.9794 37.2751C13.5985 37.6545 13.3657 37.9894 13.2809 38.2798C12.8562 39.7264 14.693 40.6987 15.743 39.6488C17.6259 37.7717 19.5058 35.8917 21.383 34.0088C21.7998 33.592 22.1368 33.3398 22.3941 33.2521C23.2349 32.9696 24.2159 33.9075 23.9658 34.8022C23.8997 35.0379 23.7099 35.3125 23.3966 35.6258C20.8698 38.1583 18.3409 40.6887 15.8098 43.2169C15.0337 43.993 15.135 45.1572 16.1073 45.6617C16.8511 46.0498 17.4591 45.7092 18.0326 45.1357C20.7692 42.3991 23.5059 39.6632 26.2425 36.928C26.6449 36.5255 26.9892 36.2855 27.2752 36.2079C28.4653 35.8867 29.3125 37.4928 28.351 38.4544C24.7707 42.0433 21.1889 45.6301 17.6057 49.2148C17.1774 49.6431 16.9252 50.0189 16.849 50.3423C16.614 51.3491 17.7847 52.3754 18.7592 51.983C18.992 51.8896 19.319 51.633 19.7401 51.2133C22.8562 48.0987 25.9708 44.9819 29.084 41.863C29.4175 41.5295 29.6877 41.3189 29.8947 41.2313C31.2357 40.6599 32.2274 42.3825 31.199 43.4066C28.6478 45.9521 26.098 48.4983 23.5497 51.0452C23.0797 51.5137 22.7973 51.9075 22.7024 52.2266C22.407 53.2313 23.6036 54.3287 24.6126 53.9212C24.8411 53.8292 25.1516 53.5863 25.5439 53.1925C29.3744 49.3606 33.2062 45.5302 37.0395 41.7013C37.8092 40.9337 39.1825 39.8126 40.2928 39.9959C41.8235 40.246 41.6834 41.9815 41.3773 43.1867C40.9224 44.9805 39.4843 49.3851 41.1444 50.7951C41.2019 50.8439 41.263 50.8497 41.3277 50.8123C41.5418 50.6873 41.6834 50.5162 41.7524 50.2992C42.2296 48.8015 42.9245 47.4469 43.8372 46.2352C45.1566 44.4832 46.4754 42.7289 47.7934 40.9725C50.4042 37.495 51.6978 33.8407 50.1153 29.6646C49.945 29.2097 50.3115 28.6427 50.678 28.2761C53.9982 24.9531 57.3191 21.6315 60.6407 18.3113C62.1585 16.7935 63.9544 18.6304 62.4883 20.0965C59.3047 23.2801 56.1211 26.4637 52.9375 29.6473C52.8857 29.6991 52.8699 29.7602 52.89 29.8306C53.7934 32.9912 53.4916 36.0419 52.0341 38.9459C51.314 40.384 50.4926 41.5762 49.6755 42.831Z" fill="#FFAB3E"/>
</svg>
